<?xml version="1.0" standalone="no"?>
<!DOCTYPE svg PUBLIC "-//W3C//DTD SVG 20010904//EN"
 "http://www.w3.org/TR/2001/REC-SVG-20010904/DTD/svg10.dtd">
<svg version="1.0" xmlns="http://www.w3.org/2000/svg"
 width="500.000000pt" height="500.000000pt" viewBox="0 0 500.000000 500.000000"
 preserveAspectRatio="xMidYMid meet">
<metadata>
Created by potrace 1.11, written by Peter Selinger 2001-2013
</metadata>
<g transform="translate(0.000000,500.000000) scale(0.100000,-0.100000)"
fill="#000000" stroke="none">
<path d="M1525 3940 c-572 -572 -1041 -1044 -1043 -1049 -1 -4 38 -48 88 -97
l90 -88 -101 -102 -101 -101 106 -105 105 -104 -89 -89 c-50 -49 -90 -94 -90
-100 0 -5 467 -477 1038 -1048 l1038 -1038 1046 1046 1045 1047 -103 101 -103
102 95 95 95 96 -98 97 -97 97 97 96 c53 53 97 100 97 103 0 3 -467 473 -1038
1044 l-1037 1037 -1040 -1040z m2045 -30 l1010 -1010 -80 -80 c-44 -44 -83
-80 -87 -80 -4 0 -423 415 -931 923 -507 507 -925 924 -928 927 -3 2 -423
-414 -934 -925 l-928 -928 -76 76 c-42 42 -76 80 -76 84 0 7 2011 2023 2017
2023 2 0 458 -455 1013 -1010z m349 -747 l462 -462 -75 -75 c-41 -42 -78 -76
-81 -76 -4 0 -362 354 -795 788 -434 433 -805 803 -825 822 l-36 34 -833 -833
-834 -834 -88 87 c-48 47 -85 88 -83 91 2 2 413 414 912 915 l909 910 452
-453 c249 -248 661 -660 915 -914z m-543 -1467 c-449 -449 -819 -816 -822
-816 -3 0 -368 363 -811 806 l-806 806 819 819 819 819 808 -809 809 -809
-816 -816z m-2554 749 c-26 -27 -64 -65 -85 -84 l-38 -34 -87 86 -87 87 85 85
84 85 88 -87 87 -87 -47 -51z m3675 140 l77 -76 -79 -79 -78 -79 -80 80 -80
80 74 74 c41 41 78 75 82 75 4 0 42 -34 84 -75z m-190 -187 c40 -40 72 -76 71
-80 -2 -4 -415 -420 -918 -923 l-914 -915 -905 905 -905 905 84 85 84 84 821
-819 c451 -451 823 -822 826 -825 3 -2 379 369 835 825 456 456 833 830 838
830 5 0 42 -32 83 -72z m203 -203 l84 -85 -39 -41 c-22 -22 -478 -479 -1013
-1015 l-973 -974 -1011 1011 -1011 1011 78 78 79 79 920 -920 c506 -505 922
-919 925 -919 3 0 425 419 936 930 511 512 932 930 935 930 3 0 43 -38 90 -85z"/>
</g>
</svg>
